<?xml version="1.0" standalone="no"?>
<!DOCTYPE svg PUBLIC "-//W3C//DTD SVG 20010904//EN"
 "http://www.w3.org/TR/2001/REC-SVG-20010904/DTD/svg10.dtd">
<svg version="1.0" xmlns="http://www.w3.org/2000/svg"
 width="298.000000pt" height="298.000000pt" viewBox="0 0 298.000000 298.000000"
 preserveAspectRatio="xMidYMid meet">
<metadata>
Created by potrace 1.14, written by Peter Selinger 2001-2017
</metadata>
<g transform="translate(0.000000,298.000000) scale(0.100000,-0.100000)"
fill="#000000" stroke="none">
<path d="M2200 2630 c-30 -10 -244 -77 -475 -150 -231 -72 -490 -153 -575
-180 -85 -27 -238 -75 -340 -106 -102 -31 -186 -58 -187 -59 -3 -1 87 -104
161 -185 22 -25 75 -83 116 -130 110 -124 133 -150 178 -200 l41 -44 63 59
c76 72 171 161 208 195 14 14 79 75 144 135 65 61 131 121 145 135 15 14 87
81 161 150 74 69 144 134 156 145 11 11 47 45 80 75 126 117 192 180 186 179
-4 -1 -32 -9 -62 -19z"/>
<path d="M1774 2013 c-34 -32 -110 -103 -169 -158 -59 -55 -122 -113 -139
-129 -60 -55 -259 -241 -291 -271 -17 -16 -85 -80 -151 -141 -300 -279 -314
-292 -314 -297 0 -3 298 86 480 144 36 12 72 23 80 25 27 7 142 41 290 87 213
66 583 179 595 181 6 2 50 15 99 30 l88 28 -34 36 c-19 21 -50 55 -69 76 -19
22 -56 64 -84 94 -27 30 -57 62 -65 72 -67 76 -154 173 -200 222 l-55 58 -61
-57z"/>
<path d="M139 813 c-121 -51 -116 -192 7 -241 16 -6 55 -18 87 -27 103 -29
134 -89 67 -128 -60 -36 -170 -5 -170 47 0 12 -11 16 -45 16 -51 0 -54 -6 -24
-60 33 -58 89 -85 174 -84 127 1 196 66 174 164 -11 49 -47 76 -145 106 -96
30 -134 55 -134 89 0 33 44 65 91 65 52 0 85 -17 100 -51 10 -25 17 -29 51
-29 39 0 40 0 33 33 -9 40 -49 84 -95 103 -41 18 -126 16 -171 -3z"/>
<path d="M656 820 c-131 -42 -196 -209 -135 -350 60 -139 234 -182 347 -85
l40 35 -2 -38 c-1 -37 -1 -37 42 -40 l42 -3 0 239 0 240 -29 4 c-43 6 -60 -7
-56 -42 4 -31 -8 -40 -22 -16 -26 46 -157 78 -227 56z m171 -87 c67 -43 96
-136 67 -219 -15 -45 -74 -103 -106 -106 -13 0 -35 -2 -50 -3 -15 -1 -45 6
-67 15 -121 55 -119 272 4 326 50 22 106 17 152 -13z"/>
<path d="M1223 808 c-144 -68 -176 -294 -58 -412 83 -83 226 -84 308 -1 l27
28 0 -42 0 -41 40 0 40 0 0 243 0 243 -27 -2 c-16 -1 -34 -3 -40 -3 -8 -1 -13
-16 -13 -42 l0 -42 -20 25 c-50 64 -173 86 -257 46z m207 -78 c62 -44 87 -149
55 -228 -43 -101 -173 -131 -252 -58 -60 56 -76 156 -35 234 40 78 158 105
232 52z"/>
<path d="M1671 820 c-8 -5 8 -64 98 -347 l42 -133 42 0 42 0 55 185 c30 102
57 185 60 185 5 0 14 -29 79 -252 16 -53 32 -101 36 -107 3 -6 24 -11 45 -11
l39 0 41 133 c23 72 56 179 75 237 18 58 31 107 30 108 -2 2 -18 5 -35 6 -43
3 -37 18 -117 -291 -15 -57 -30 -100 -34 -95 -6 6 -52 159 -64 212 -13 53 -46
154 -54 164 -6 7 -25 10 -45 8 -39 -5 -28 22 -113 -264 -36 -124 -47 -140 -56
-88 -9 46 -87 325 -95 339 -8 14 -55 22 -71 11z"/>
<path d="M2451 820 c-11 -6 -15 -168 -12 -437 l1 -43 40 0 40 0 0 155 c0 177
9 213 62 245 37 23 101 26 138 7 13 -7 35 -28 47 -46 22 -32 23 -44 23 -197
l0 -164 40 0 40 0 0 170 c0 218 -15 260 -105 301 -70 32 -169 21 -219 -26
l-26 -24 0 29 c0 17 -5 30 -12 31 -7 0 -20 2 -29 4 -9 1 -22 -1 -28 -5z"/>
</g>
</svg>
